<mxfile host="Electron" agent="Mozilla/5.0 (Windows NT 10.0; Win64; x64) AppleWebKit/537.36 (KHTML, like Gecko) draw.io/24.7.17 Chrome/128.0.6613.36 Electron/32.0.1 Safari/537.36" version="24.7.17">
  <diagram id="C5RBs43oDa-KdzZeNtuy" name="Page-1">
    <mxGraphModel dx="635" dy="486" grid="1" gridSize="10" guides="1" tooltips="1" connect="1" arrows="1" fold="1" page="1" pageScale="1" pageWidth="827" pageHeight="1169" math="0" shadow="0">
      <root>
        <mxCell id="WIyWlLk6GJQsqaUBKTNV-0" />
        <mxCell id="WIyWlLk6GJQsqaUBKTNV-1" parent="WIyWlLk6GJQsqaUBKTNV-0" />
        <mxCell id="lJRKsU2WNjcnRI6e_XWt-7" value="XYZCommand" style="swimlane;fontStyle=1;align=center;verticalAlign=top;childLayout=stackLayout;horizontal=1;startSize=26;horizontalStack=0;resizeParent=1;resizeParentMax=0;resizeLast=0;collapsible=1;marginBottom=0;whiteSpace=wrap;html=1;" parent="WIyWlLk6GJQsqaUBKTNV-1" vertex="1">
          <mxGeometry x="207" y="11" width="220" height="120" as="geometry" />
        </mxCell>
        <mxCell id="lJRKsU2WNjcnRI6e_XWt-8" value="- fullCommand:String" style="text;strokeColor=none;fillColor=none;align=left;verticalAlign=top;spacingLeft=4;spacingRight=4;overflow=hidden;rotatable=0;points=[[0,0.5],[1,0.5]];portConstraint=eastwest;whiteSpace=wrap;html=1;" parent="lJRKsU2WNjcnRI6e_XWt-7" vertex="1">
          <mxGeometry y="26" width="220" height="26" as="geometry" />
        </mxCell>
        <mxCell id="lJRKsU2WNjcnRI6e_XWt-9" value="" style="line;strokeWidth=1;fillColor=none;align=left;verticalAlign=middle;spacingTop=-1;spacingLeft=3;spacingRight=3;rotatable=0;labelPosition=right;points=[];portConstraint=eastwest;strokeColor=inherit;" parent="lJRKsU2WNjcnRI6e_XWt-7" vertex="1">
          <mxGeometry y="52" width="220" height="8" as="geometry" />
        </mxCell>
        <mxCell id="lJRKsU2WNjcnRI6e_XWt-10" value="+ isExit():void&lt;div&gt;+ execute(incomes:IncomeList,&lt;/div&gt;&lt;div&gt;spendings:SpendingList):void&lt;/div&gt;" style="text;strokeColor=none;fillColor=none;align=left;verticalAlign=top;spacingLeft=4;spacingRight=4;overflow=hidden;rotatable=0;points=[[0,0.5],[1,0.5]];portConstraint=eastwest;whiteSpace=wrap;html=1;" parent="lJRKsU2WNjcnRI6e_XWt-7" vertex="1">
          <mxGeometry y="60" width="220" height="60" as="geometry" />
        </mxCell>
        <mxCell id="lJRKsU2WNjcnRI6e_XWt-11" value="XYZCommand refers to any command" style="shape=note2;boundedLbl=1;whiteSpace=wrap;html=1;size=25;verticalAlign=top;align=center;flipV=1;" parent="WIyWlLk6GJQsqaUBKTNV-1" vertex="1">
          <mxGeometry x="490" y="60" width="140" height="80" as="geometry" />
        </mxCell>
        <mxCell id="lJRKsU2WNjcnRI6e_XWt-12" value="" style="endArrow=none;dashed=1;html=1;rounded=0;fontSize=12;startSize=8;endSize=8;curved=1;exitX=1;exitY=0.25;exitDx=0;exitDy=0;entryX=0;entryY=1;entryDx=0;entryDy=0;entryPerimeter=0;" parent="WIyWlLk6GJQsqaUBKTNV-1" source="lJRKsU2WNjcnRI6e_XWt-7" target="lJRKsU2WNjcnRI6e_XWt-11" edge="1">
          <mxGeometry width="50" height="50" relative="1" as="geometry">
            <mxPoint x="457" y="230" as="sourcePoint" />
            <mxPoint x="507" y="180" as="targetPoint" />
          </mxGeometry>
        </mxCell>
        <mxCell id="lJRKsU2WNjcnRI6e_XWt-27" value="" style="endArrow=open;endSize=12;dashed=1;html=1;rounded=0;fontSize=12;exitX=0.46;exitY=1.03;exitDx=0;exitDy=0;entryX=0.5;entryY=0;entryDx=0;entryDy=0;edgeStyle=orthogonalEdgeStyle;exitPerimeter=0;" parent="WIyWlLk6GJQsqaUBKTNV-1" source="lJRKsU2WNjcnRI6e_XWt-3" target="PTH7G4Kg7HEpN0CLAYnN-4" edge="1">
          <mxGeometry width="160" relative="1" as="geometry">
            <mxPoint x="447" y="272.47" as="sourcePoint" />
            <mxPoint x="517" y="227" as="targetPoint" />
            <Array as="points">
              <mxPoint x="308" y="390" />
              <mxPoint x="230" y="390" />
            </Array>
          </mxGeometry>
        </mxCell>
        <mxCell id="lJRKsU2WNjcnRI6e_XWt-29" value="" style="endArrow=open;endSize=12;dashed=1;html=1;rounded=0;fontSize=12;exitX=0.46;exitY=1.005;exitDx=0;exitDy=0;entryX=0.5;entryY=0;entryDx=0;entryDy=0;edgeStyle=orthogonalEdgeStyle;exitPerimeter=0;" parent="WIyWlLk6GJQsqaUBKTNV-1" source="lJRKsU2WNjcnRI6e_XWt-3" target="lJRKsU2WNjcnRI6e_XWt-31" edge="1">
          <mxGeometry width="160" relative="1" as="geometry">
            <mxPoint x="491" y="270" as="sourcePoint" />
            <mxPoint x="517" y="335" as="targetPoint" />
            <Array as="points">
              <mxPoint x="308" y="390" />
              <mxPoint x="477" y="390" />
            </Array>
          </mxGeometry>
        </mxCell>
        <mxCell id="lJRKsU2WNjcnRI6e_XWt-31" value="SpendingList" style="swimlane;fontStyle=1;align=center;verticalAlign=top;childLayout=stackLayout;horizontal=1;startSize=26;horizontalStack=0;resizeParent=1;resizeParentMax=0;resizeLast=0;collapsible=1;marginBottom=0;whiteSpace=wrap;html=1;" parent="WIyWlLk6GJQsqaUBKTNV-1" vertex="1">
          <mxGeometry x="377" y="430" width="200" height="272" as="geometry" />
        </mxCell>
        <mxCell id="lJRKsU2WNjcnRI6e_XWt-32" value="&lt;div&gt;- total:double&lt;/div&gt;- dailyBudget:double&lt;div&gt;- monthlyBudget:double&lt;/div&gt;&lt;div&gt;- yearlyBudget:double&lt;/div&gt;" style="text;strokeColor=none;fillColor=none;align=left;verticalAlign=top;spacingLeft=4;spacingRight=4;overflow=hidden;rotatable=0;points=[[0,0.5],[1,0.5]];portConstraint=eastwest;whiteSpace=wrap;html=1;" parent="lJRKsU2WNjcnRI6e_XWt-31" vertex="1">
          <mxGeometry y="26" width="200" height="64" as="geometry" />
        </mxCell>
        <mxCell id="lJRKsU2WNjcnRI6e_XWt-33" value="" style="line;strokeWidth=1;fillColor=none;align=left;verticalAlign=middle;spacingTop=-1;spacingLeft=3;spacingRight=3;rotatable=0;labelPosition=right;points=[];portConstraint=eastwest;strokeColor=inherit;" parent="lJRKsU2WNjcnRI6e_XWt-31" vertex="1">
          <mxGeometry y="90" width="200" height="10" as="geometry" />
        </mxCell>
        <mxCell id="lJRKsU2WNjcnRI6e_XWt-34" value="+ getDailyBudget():double&lt;div&gt;+ getMonthlyBudget():double&lt;/div&gt;&lt;div&gt;+ getYearlyBudget():double&lt;/div&gt;&lt;div&gt;+ setDailyBudget():double&lt;/div&gt;&lt;div&gt;+ setMonthlyBudget():double&lt;/div&gt;&lt;div&gt;+ setYearlyBudget():double&lt;/div&gt;&lt;div&gt;+ getMonthlySpending():double&lt;/div&gt;&lt;div&gt;+ getDailySpending():double&lt;/div&gt;&lt;div&gt;+ getYearlySpending():double&lt;/div&gt;&lt;div&gt;+ updateRecurrence():void&lt;/div&gt;&lt;div&gt;+ checkOverspend():void&lt;/div&gt;" style="text;strokeColor=none;fillColor=none;align=left;verticalAlign=top;spacingLeft=4;spacingRight=4;overflow=hidden;rotatable=0;points=[[0,0.5],[1,0.5]];portConstraint=eastwest;whiteSpace=wrap;html=1;" parent="lJRKsU2WNjcnRI6e_XWt-31" vertex="1">
          <mxGeometry y="100" width="200" height="172" as="geometry" />
        </mxCell>
        <mxCell id="lJRKsU2WNjcnRI6e_XWt-40" value="Ui" style="swimlane;fontStyle=1;align=center;verticalAlign=top;childLayout=stackLayout;horizontal=1;startSize=26;horizontalStack=0;resizeParent=1;resizeParentMax=0;resizeLast=0;collapsible=1;marginBottom=0;whiteSpace=wrap;html=1;" parent="WIyWlLk6GJQsqaUBKTNV-1" vertex="1">
          <mxGeometry x="670" y="190" width="470" height="204" as="geometry" />
        </mxCell>
        <mxCell id="lJRKsU2WNjcnRI6e_XWt-42" value="" style="line;strokeWidth=1;fillColor=none;align=left;verticalAlign=middle;spacingTop=-1;spacingLeft=3;spacingRight=3;rotatable=0;labelPosition=right;points=[];portConstraint=eastwest;strokeColor=inherit;" parent="lJRKsU2WNjcnRI6e_XWt-40" vertex="1">
          <mxGeometry y="26" width="470" height="8" as="geometry" />
        </mxCell>
        <mxCell id="lJRKsU2WNjcnRI6e_XWt-43" value="&lt;u&gt;+ printSpendingStatistics(spendings:SpendingList):void&lt;/u&gt;&lt;div&gt;&lt;u&gt;+ printAllTags(incomes:IncomeList, spendings:SpendingList) :void&lt;/u&gt;&lt;/div&gt;&lt;div&gt;&lt;u&gt;+ printSpecificTag(incomes:IncomeList, spendings:SpendingList, tag:String):void&lt;/u&gt;&lt;/div&gt;&lt;div&gt;&lt;u&gt;+ printOverspendMessage(budgetType:String, overspendAmount:double):void&lt;/u&gt;&lt;/div&gt;&lt;div&gt;&lt;u&gt;+ printWeekly(list:ArrayList):void&lt;/u&gt;&lt;/div&gt;&lt;div&gt;&lt;u&gt;+ printBiweekly(list:ArrayList):void&lt;/u&gt;&lt;u&gt;&lt;br&gt;&lt;/u&gt;&lt;/div&gt;&lt;div&gt;&lt;u&gt;+ printMonthly(list:ArrayList):void&lt;/u&gt;&lt;u&gt;&lt;br&gt;&lt;/u&gt;&lt;/div&gt;&lt;div&gt;&lt;u&gt;+ printListOfTimeRange(list:ArrayList):boolean&lt;/u&gt;&lt;u&gt;&lt;br&gt;&lt;/u&gt;&lt;/div&gt;&lt;div&gt;&lt;u&gt;+ printStatisticsIfRequired(spendings:SpendingList):void&lt;/u&gt;&lt;/div&gt;&lt;div&gt;&lt;u&gt;+ hasRecurrenceBacklog(toAdd:T):boolean&lt;/u&gt;&lt;/div&gt;&lt;div&gt;&lt;u&gt;+ printFindResults(findResults:ArrayList&amp;lt;T&amp;gt;, list:ArrayList&amp;lt;T&amp;gt;):void&lt;/u&gt;&lt;/div&gt;" style="text;strokeColor=none;fillColor=none;align=left;verticalAlign=top;spacingLeft=4;spacingRight=4;overflow=hidden;rotatable=0;points=[[0,0.5],[1,0.5]];portConstraint=eastwest;whiteSpace=wrap;html=1;" parent="lJRKsU2WNjcnRI6e_XWt-40" vertex="1">
          <mxGeometry y="34" width="470" height="170" as="geometry" />
        </mxCell>
        <mxCell id="lJRKsU2WNjcnRI6e_XWt-0" value="&lt;div&gt;{abstract}&lt;/div&gt;Command" style="swimlane;fontStyle=1;align=center;verticalAlign=top;childLayout=stackLayout;horizontal=1;startSize=40;horizontalStack=0;resizeParent=1;resizeParentMax=0;resizeLast=0;collapsible=1;marginBottom=0;whiteSpace=wrap;html=1;" parent="WIyWlLk6GJQsqaUBKTNV-1" vertex="1">
          <mxGeometry x="207" y="190" width="220" height="120" as="geometry">
            <mxRectangle x="290" y="170" width="100" height="30" as="alternateBounds" />
          </mxGeometry>
        </mxCell>
        <mxCell id="lJRKsU2WNjcnRI6e_XWt-2" value="" style="line;strokeWidth=1;fillColor=none;align=left;verticalAlign=middle;spacingTop=-1;spacingLeft=3;spacingRight=3;rotatable=0;labelPosition=right;points=[];portConstraint=eastwest;strokeColor=inherit;" parent="lJRKsU2WNjcnRI6e_XWt-0" vertex="1">
          <mxGeometry y="40" width="220" height="8" as="geometry" />
        </mxCell>
        <mxCell id="lJRKsU2WNjcnRI6e_XWt-3" value="+ isExit():void&lt;div&gt;+ execute(incomes:IncomeList, spendings:SpendingList):void {abstract}&lt;/div&gt;" style="text;strokeColor=none;fillColor=none;align=left;verticalAlign=top;spacingLeft=4;spacingRight=4;overflow=hidden;rotatable=0;points=[[0,0.5],[1,0.5]];portConstraint=eastwest;whiteSpace=wrap;html=1;" parent="lJRKsU2WNjcnRI6e_XWt-0" vertex="1">
          <mxGeometry y="48" width="220" height="72" as="geometry" />
        </mxCell>
        <mxCell id="lJRKsU2WNjcnRI6e_XWt-15" value="" style="endArrow=block;endSize=16;endFill=0;html=1;rounded=0;fontSize=12;curved=1;exitX=0.498;exitY=1.007;exitDx=0;exitDy=0;exitPerimeter=0;entryX=0.5;entryY=0;entryDx=0;entryDy=0;" parent="WIyWlLk6GJQsqaUBKTNV-1" source="lJRKsU2WNjcnRI6e_XWt-10" target="lJRKsU2WNjcnRI6e_XWt-0" edge="1">
          <mxGeometry width="160" relative="1" as="geometry">
            <mxPoint x="327" y="140" as="sourcePoint" />
            <mxPoint x="397" y="50" as="targetPoint" />
          </mxGeometry>
        </mxCell>
        <mxCell id="lJRKsU2WNjcnRI6e_XWt-49" value="Only public methods that are used by command classes for execution are shown in the diagram." style="shape=note2;boundedLbl=1;whiteSpace=wrap;html=1;size=25;verticalAlign=top;align=center;flipV=1;" parent="WIyWlLk6GJQsqaUBKTNV-1" vertex="1">
          <mxGeometry x="700" y="40" width="180" height="120" as="geometry" />
        </mxCell>
        <mxCell id="lJRKsU2WNjcnRI6e_XWt-53" value="" style="endArrow=open;endSize=12;dashed=1;html=1;rounded=0;fontSize=12;exitX=0.5;exitY=1.011;exitDx=0;exitDy=0;exitPerimeter=0;entryX=0.455;entryY=0.992;entryDx=0;entryDy=0;entryPerimeter=0;edgeStyle=orthogonalEdgeStyle;" parent="WIyWlLk6GJQsqaUBKTNV-1" source="lJRKsU2WNjcnRI6e_XWt-43" target="PTH7G4Kg7HEpN0CLAYnN-7" edge="1">
          <mxGeometry width="160" relative="1" as="geometry">
            <mxPoint x="200" y="730" as="sourcePoint" />
            <mxPoint y="550" as="targetPoint" />
            <Array as="points">
              <mxPoint x="905" y="780" />
              <mxPoint x="221" y="780" />
            </Array>
          </mxGeometry>
        </mxCell>
        <mxCell id="lJRKsU2WNjcnRI6e_XWt-54" value="" style="endArrow=open;endSize=12;dashed=1;html=1;rounded=0;fontSize=12;exitX=0;exitY=0.5;exitDx=0;exitDy=0;entryX=0.75;entryY=0;entryDx=0;entryDy=0;edgeStyle=orthogonalEdgeStyle;" parent="WIyWlLk6GJQsqaUBKTNV-1" source="lJRKsU2WNjcnRI6e_XWt-43" target="lJRKsU2WNjcnRI6e_XWt-31" edge="1">
          <mxGeometry width="160" relative="1" as="geometry">
            <mxPoint x="430" y="650" as="sourcePoint" />
            <mxPoint x="590" y="650" as="targetPoint" />
          </mxGeometry>
        </mxCell>
        <mxCell id="lJRKsU2WNjcnRI6e_XWt-55" value="" style="endArrow=open;endSize=12;dashed=1;html=1;rounded=0;fontSize=12;edgeStyle=orthogonalEdgeStyle;entryX=-0.001;entryY=0.62;entryDx=0;entryDy=0;entryPerimeter=0;" parent="WIyWlLk6GJQsqaUBKTNV-1" target="lJRKsU2WNjcnRI6e_XWt-43" edge="1">
          <mxGeometry width="160" relative="1" as="geometry">
            <mxPoint x="550" y="428" as="sourcePoint" />
            <mxPoint x="620" y="350" as="targetPoint" />
            <Array as="points">
              <mxPoint x="550" y="330" />
              <mxPoint x="620" y="330" />
            </Array>
          </mxGeometry>
        </mxCell>
        <mxCell id="VLo0LQePdQa-nSVOcm7t-0" value="" style="endArrow=open;endSize=12;dashed=1;html=1;rounded=0;fontSize=12;exitX=1;exitY=0.5;exitDx=0;exitDy=0;edgeStyle=orthogonalEdgeStyle;entryX=-0.001;entryY=0.323;entryDx=0;entryDy=0;entryPerimeter=0;" parent="WIyWlLk6GJQsqaUBKTNV-1" source="lJRKsU2WNjcnRI6e_XWt-3" target="lJRKsU2WNjcnRI6e_XWt-43" edge="1">
          <mxGeometry width="160" relative="1" as="geometry">
            <mxPoint x="460" y="270" as="sourcePoint" />
            <mxPoint x="590" y="330" as="targetPoint" />
            <Array as="points">
              <mxPoint x="427" y="279" />
            </Array>
          </mxGeometry>
        </mxCell>
        <mxCell id="PTH7G4Kg7HEpN0CLAYnN-4" value="IncomeList" style="swimlane;fontStyle=1;align=center;verticalAlign=top;childLayout=stackLayout;horizontal=1;startSize=26;horizontalStack=0;resizeParent=1;resizeParentMax=0;resizeLast=0;collapsible=1;marginBottom=0;whiteSpace=wrap;html=1;" parent="WIyWlLk6GJQsqaUBKTNV-1" vertex="1">
          <mxGeometry x="130" y="430" width="200" height="100" as="geometry" />
        </mxCell>
        <mxCell id="PTH7G4Kg7HEpN0CLAYnN-5" value="- total:double" style="text;strokeColor=none;fillColor=none;align=left;verticalAlign=top;spacingLeft=4;spacingRight=4;overflow=hidden;rotatable=0;points=[[0,0.5],[1,0.5]];portConstraint=eastwest;whiteSpace=wrap;html=1;" parent="PTH7G4Kg7HEpN0CLAYnN-4" vertex="1">
          <mxGeometry y="26" width="200" height="26" as="geometry" />
        </mxCell>
        <mxCell id="PTH7G4Kg7HEpN0CLAYnN-6" value="" style="line;strokeWidth=1;fillColor=none;align=left;verticalAlign=middle;spacingTop=-1;spacingLeft=3;spacingRight=3;rotatable=0;labelPosition=right;points=[];portConstraint=eastwest;strokeColor=inherit;" parent="PTH7G4Kg7HEpN0CLAYnN-4" vertex="1">
          <mxGeometry y="52" width="200" height="8" as="geometry" />
        </mxCell>
        <mxCell id="PTH7G4Kg7HEpN0CLAYnN-7" value="+ updateRecurrence():void&lt;div&gt;+ add(income:Income):boolean&lt;br&gt;&lt;div&gt;&lt;br&gt;&lt;/div&gt;&lt;/div&gt;" style="text;strokeColor=none;fillColor=none;align=left;verticalAlign=top;spacingLeft=4;spacingRight=4;overflow=hidden;rotatable=0;points=[[0,0.5],[1,0.5]];portConstraint=eastwest;whiteSpace=wrap;html=1;" parent="PTH7G4Kg7HEpN0CLAYnN-4" vertex="1">
          <mxGeometry y="60" width="200" height="40" as="geometry" />
        </mxCell>
      </root>
    </mxGraphModel>
  </diagram>
</mxfile>
